<?xml version="1.0" encoding="UTF-8"?>
<svg id="Layer_1" xmlns="http://www.w3.org/2000/svg" viewBox="0 0 154.3 129.2">
  <defs>
    <style>
      .cls-1 {
        stroke: #78cff2;
      }

      .cls-1, .cls-2 {
        fill: none;
        stroke-linecap: round;
        stroke-linejoin: round;
        stroke-width: 5px;
      }

      .cls-2 {
        stroke: #ecd73c;
      }

      .cls-3 {
        fill: #78cff2;
      }
    </style>
  </defs>
  <path class="cls-3" d="M96.4,33.7c0,1.4.6,2.7,1.6,3.6s2.4,1.5,3.9,1.5,2.9-.6,3.9-1.5,1.6-2.2,1.6-3.6-.6-2.7-1.6-3.6-2.4-1.5-3.9-1.5-2.9.6-3.9,1.5-1.6,2.2-1.6,3.6Z"/>
  <path class="cls-1" d="M67.5,109.4c-8.7,1.2-17.5-1.3-24.6-6.4-7.1-5.1-12.6-12.6-14.7-21.6"/>
  <path class="cls-1" d="M83.6,91.2c-2.8,4.3-7.9,7.2-13.7,8.2-5.8,1.1-12.4.4-18.5-2.3"/>
  <path class="cls-1" d="M78.5,78.9c-5.4,5.9-13.7,9.1-22.8,9.4s-18.9-2.1-27.3-7.5"/>
  <path class="cls-1" d="M127.5,120.2c-4.4,4.6-10.7,6.5-16.4,6.5h-54.4c-10.4,0-19.8-4.1-26.6-10.8-6.8-6.7-11-15.9-11-26.1v-10c0-.6-.3-1.1-.7-1.5s-1-.5-1.6-.4c-3.7.9-7.3-.2-9.9-2.6-2.6-2.3-4.4-5.8-4.3-9.8,0-3.5,1.3-6.6,3.4-8.9,2.1-2.3,5.1-3.7,8.3-3.7h0c2.7,0,5.1,1,7.1,2.6,2,1.6,3.5,3.9,4.2,6.5.1.4.4.8.7,1,.3.3.8.4,1.2.4,0,0,10.6,0,21.3,0,10.6,0,21.3,0,21.3,0,.8,0,1.4-.4,1.7-1,.3-.6.3-1.3-.2-2-4.2-5.1-6.4-11.3-6.6-17.6-.2-6.3,1.6-12.7,5.4-18.3.3-.7.2-1.2-.1-1.5-.4-.4-1-.6-1.7-.9-5.1-2.1-7-6.5-6.2-10.6.8-4,4.1-7.6,9.6-8,2.5-.2,5,.5,7,1.9,2,1.4,3.4,3.2,4,5.5,0,.3.1.5.2.8.1.4.3.7.5.9.3.3.6.5,1.2.4.7-.1,1.4-.4,2.1-.6.7-.3,1.4-.5,2.1-.7,4.1-1.2,8.4-1.7,12.7-1.6,4.3.2,8.5,1.1,12.5,2.6.5.2,1.1.4,1.6.4s.9-.3,1.2-.9c.3-.9.6-1.9,1-2.9.4-1,.9-1.9,1.6-2.7,3.1-3.8,7.6-4.8,11.5-3.6s7.3,4.4,8,9.1c.5,2.4,0,5-1.1,7.2-1.1,2.2-2.9,4-5.1,5-1.4.6-1.8,1.3-1.8,2.1s.7,1.7,1.2,2.8c2,3.8,2.6,9,2.1,14.5-.1,1.8-.8,3.4-1.7,4.8-1.1-1.1-2.2-2.4-3.2-3.9-4.4-6.4-8.7-6.6-12.2-4.7-3.5,1.8-6.3,5.7-7.7,7.5h0c-3.9,5.1-3.3,12,1.2,17.2,1.4,1.6,3.1,3,5.2,4.2,1.1,2.9,3.2,6.2,6.7,9.9.4.5,23,18.9,4.8,41.5Z"/>
  <path class="cls-2" d="M109.5,47.3c-3.9,5.1-3.3,12,1.2,17.2,4.5,5.2,13,8.8,24.8,7.5,7.6-.9,11.8-2.9,14-5.2s2.5-4.9,2.1-7c-.2-1.1-.7-2.1-1.5-2.8s-1.8-1.2-2.9-1.3c-2-.2-5-.7-8.2-2.4s-6.6-4.3-9.7-8.7c-4.4-6.4-8.7-6.6-12.2-4.7-3.5,1.8-6.3,5.7-7.7,7.5h0Z"/>
</svg>