<?xml version="1.0" encoding="UTF-8"?>
<svg xmlns="http://www.w3.org/2000/svg" version="1.1" viewBox="0 0 165.9 138.8">
  <defs>
    <style>
      .cls-1 {
        fill: #72ccd4;
      }

      .cls-1, .cls-2, .cls-3, .cls-4 {
        isolation: isolate;
      }

      .cls-2 {
        stroke: #fedb00;
        stroke-width: 5px;
      }

      .cls-2, .cls-3, .cls-4 {
        fill: none;
        stroke-linecap: round;
        stroke-linejoin: round;
      }

      .cls-3 {
        stroke-width: 4.4px;
      }

      .cls-3, .cls-4 {
        stroke: #72ccd4;
      }

      .cls-4 {
        stroke-width: 4.4px;
      }
    </style>
  </defs>
  <!-- Generator: Adobe Illustrator 28.6.0, SVG Export Plug-In . SVG Version: 1.2.0 Build 709)  -->
  <g>
    <g id="Layer_1">
      <path class="cls-1" d="M98.1,40.1c0-1.3.6-2.6,1.6-3.5s2.3-1.4,3.7-1.4,2.8.5,3.7,1.4,1.6,2.2,1.6,3.5-.6,2.6-1.6,3.5-2.3,1.4-3.7,1.4-2.8-.5-3.7-1.4-1.6-2.2-1.6-3.5Z"/>
      <path class="cls-4" d="M41.2,88.8c2,8.6,7.1,16,13.8,20.8,6.6,4.8,14.9,7.3,23.1,6.1"/>
      <path class="cls-4" d="M62.9,103.9c5.7,2.6,11.8,3.3,17.3,2.2,5.4-1.1,10.1-3.8,12.8-8"/>
      <path class="cls-4" d="M41.2,88.1c7.9,5.2,17.1,7.6,25.6,7.3,8.5-.4,16.4-3.4,21.4-9.1"/>
      <path class="cls-3" d="M127.2,123.7h-.2c17.1-21.9-4.1-39.6-4.5-40.1-3.4-3.6-5.4-6.7-6.4-9.6-1.9-1.2-3.6-2.6-4.9-4.1-4.3-5.1-4.8-11.8-1.1-16.7h0c1.3-1.7,3.9-5.5,7.2-7.3s7.4-1.5,11.5,4.6c1,1.4,1.9,2.7,3,3.8.9-1.3,1.4-3,1.6-4.7.4-5.3,0-10.3-2-14-.5-1.1-1-2-1.1-2.7s.3-1.3,1.7-2c2.1-1,3.7-2.8,4.8-4.8,1-2.1,1.4-4.6,1-6.9-.7-4.5-3.8-7.7-7.5-8.8s-7.9-.2-10.8,3.5c-.7.7-1.1,1.6-1.5,2.6-.3.9-.7,1.9-1,2.8-.3.6-.7.9-1.1.9s-1-.2-1.5-.4c-3.7-1.5-7.7-2.3-11.7-2.5s-8,.4-11.8,1.5c-.6.2-1.3.4-1.9.7s-1.3.5-1.9.6c-.4,0-.8,0-1-.4-.2-.2-.3-.4-.4-.8,0-.2-.2-.4-.2-.7-.5-2.2-1.8-3.9-3.7-5.3-1.8-1.3-4.2-2-6.5-1.8-5.1.4-8.4,3.9-9.1,7.7-.7,3.9,1,8.2,5.8,10.2.6.3,1.2.5,1.6.9.3.4.4.8,0,1.4-3.7,5.4-5.3,11.6-5.1,17.7.2,6.1,2.3,12.1,6.2,17,.4.5.4,1.3.2,1.9s-.8,1-1.6,1h-39.9c-.4,0-.8-.2-1.1-.4-.3-.3-.6-.6-.7-1-.7-2.5-2.1-4.8-3.9-6.3-1.8-1.6-4.1-2.5-6.6-2.5h0c-3,0-5.7,1.3-7.7,3.6-2,2.2-3.2,5.2-3.2,8.6s1.7,7.2,4.1,9.4c2.5,2.2,5.8,3.3,9.3,2.5.5-.2,1,0,1.5.4s.7.9.7,1.4v9.6c0,9.9,4,18.7,10.4,25.2,6.4,6.5,15.1,10.4,24.9,10.4h51c5.4,0,11.2-1.8,15.4-6.3Z"/>
      <path class="cls-2" d="M129,50.6c2.9,4.2,6.1,6.8,9.1,8.4s5.7,2.2,7.7,2.3c1,0,1.9.5,2.7,1.3s1.3,1.7,1.5,2.8c.3,2.1,0,4.6-2,6.8s-6,4.2-13.1,5c-11.1,1.3-19-2.2-23.2-7.3-4.3-5.1-4.8-11.8-1.1-16.7h0c1.3-1.7,3.9-5.5,7.2-7.3s7.4-1.5,11.5,4.6"/>
    </g>
  </g>
</svg>